<svg width="50" height="50" viewBox="0 0 50 50" fill="none" xmlns="http://www.w3.org/2000/svg">
<rect width="50" height="50" rx="25" fill="#1574F3"/>
<path d="M15.3438 18.4453H35.6562C36.0877 18.4453 36.4375 18.0956 36.4375 17.6641V15.7109C36.4375 15.2794 36.0877 14.9297 35.6562 14.9297H15.3438C14.9123 14.9297 14.5625 15.2794 14.5625 15.7109V17.6641C14.5625 18.0956 14.9123 18.4453 15.3438 18.4453ZM15.3438 26.2578H35.6562C36.0877 26.2578 36.4375 25.9081 36.4375 25.4766V23.5234C36.4375 23.0919 36.0877 22.7422 35.6562 22.7422H15.3438C14.9123 22.7422 14.5625 23.0919 14.5625 23.5234V25.4766C14.5625 25.9081 14.9123 26.2578 15.3438 26.2578ZM15.3438 34.0703H35.6562C36.0877 34.0703 36.4375 33.7206 36.4375 33.2891V31.3359C36.4375 30.9044 36.0877 30.5547 35.6562 30.5547H15.3438C14.9123 30.5547 14.5625 30.9044 14.5625 31.3359V33.2891C14.5625 33.7206 14.9123 34.0703 15.3438 34.0703Z" fill="white"/>
</svg>
