<svg width="50" height="50" viewBox="0 0 50 50" fill="none" xmlns="http://www.w3.org/2000/svg">
<rect width="50" height="50" rx="25" fill="#181A1B"/>
<path d="M23.6715 27.6268L14.1821 18.1373C13.7245 17.6796 13.7245 16.9376 14.1821 16.48L15.2889 15.3732C15.7458 14.9164 16.4863 14.9155 16.9442 15.3713L24.5002 22.8918L32.0561 15.3713C32.5141 14.9155 33.2545 14.9164 33.7114 15.3732L34.8182 16.48C35.2759 16.9377 35.2759 17.6797 34.8182 18.1373L25.3288 27.6268C24.8712 28.0844 24.1292 28.0844 23.6715 27.6268Z" fill="white"/>
<path d="M25.3288 23.3732L34.8182 32.8626C35.2759 33.3203 35.2759 34.0623 34.8182 34.5199L33.7114 35.6267C33.2545 36.0836 32.5141 36.0845 32.0561 35.6287L24.5001 28.1081L16.9442 35.6287C16.4863 36.0845 15.7458 36.0836 15.2889 35.6268L14.1821 34.52C13.7245 34.0623 13.7245 33.3203 14.1821 32.8627L23.6715 23.3733C24.1291 22.9156 24.8711 22.9156 25.3288 23.3732Z" fill="white"/>
</svg>
