<svg width="55" height="55" viewBox="0 0 55 55" fill="none" xmlns="http://www.w3.org/2000/svg">
<path d="M27.5 0C12.3062 0 0 12.3062 0 27.5C0 39.6687 7.87187 49.947 18.803 53.5907C20.178 53.8312 20.6938 53.0062 20.6938 52.2845C20.6938 51.6312 20.6595 49.4657 20.6595 47.1625C13.75 48.4345 11.9625 45.478 11.4125 43.9312C11.1031 43.1405 9.7625 40.7 8.59375 40.0468C7.63125 39.5312 6.25625 38.2593 8.55937 38.225C10.725 38.1905 12.2719 40.2188 12.7875 41.0438C15.2625 45.203 19.2157 44.0345 20.797 43.3125C21.0375 41.525 21.7593 40.3218 22.55 39.6343C16.4312 38.9468 10.0375 36.575 10.0375 26.0562C10.0375 23.0655 11.1031 20.5905 12.8562 18.6655C12.5813 17.9781 11.6188 15.1594 13.1313 11.3781C13.1313 11.3781 15.4344 10.6562 20.6938 14.1969C22.8938 13.5781 25.2313 13.2688 27.5688 13.2688C29.9063 13.2688 32.2438 13.5781 34.4438 14.1969C39.7032 10.6219 42.0063 11.3781 42.0063 11.3781C43.5188 15.1594 42.5563 17.9781 42.2812 18.6655C44.0345 20.5905 45.1 23.0312 45.1 26.0562C45.1 36.6093 38.672 38.9468 32.5532 39.6343C33.55 40.4937 34.4095 42.1437 34.4095 44.722C34.4095 48.4 34.375 51.3563 34.375 52.2845C34.375 53.0062 34.8907 53.8657 36.2657 53.5907C47.1282 49.947 55 39.6343 55 27.5C55 12.3062 42.6938 0 27.5 0Z" fill="white"/>
</svg>
