<svg width="120" height="136" viewBox="0 0 120 136" fill="none" xmlns="http://www.w3.org/2000/svg">
<path d="M36.8218 96.0951C41.9497 96.0951 46.4726 94.4253 50.391 91.0855C51.3901 90.2177 52.3696 89.1065 53.3295 87.7524C54.2894 86.3982 55.0979 84.7611 55.7556 82.8413C56.4132 80.9216 56.7416 78.673 56.7416 76.0961V45.0926C56.7416 43.5674 56.196 42.2591 55.1049 41.1678C54.0133 40.0765 52.705 39.5308 51.1799 39.5308C49.6286 39.5308 48.3138 40.0765 47.2353 41.1678C46.1572 42.2591 45.6182 43.5674 45.6182 45.0926V76.0961C45.6182 78.2788 45.1646 80.021 44.2571 81.3228C43.35 82.6242 42.2257 83.5579 40.8847 84.1231C39.5435 84.6887 38.1892 84.9713 36.8218 84.9713C35.4806 84.9713 34.1395 84.6887 32.7984 84.1231C31.4572 83.5579 30.333 82.6242 29.4258 81.3228C28.5185 80.021 28.0649 78.2788 28.065 76.0961C28.065 74.571 27.5259 73.2626 26.4477 72.1715C25.3695 71.0799 24.0547 70.5343 22.5032 70.5343C20.9779 70.5343 19.6697 71.0799 18.5783 72.1715C17.487 73.2626 16.9414 74.571 16.9414 76.0961C16.9414 78.673 17.2701 80.9216 17.9275 82.8413C18.585 84.7611 19.3936 86.3978 20.3535 87.7524C21.3133 89.1065 22.2929 90.2177 23.2921 91.0855C27.2104 94.4253 31.7202 96.0951 36.8218 96.0951ZM96.1245 96.0951H67.3691C65.8179 96.0951 64.503 95.5561 63.4249 94.4776C62.3465 93.3995 61.8074 92.0847 61.8074 90.533C61.8074 88.9817 62.3465 87.6669 63.4249 86.5888C64.503 85.5103 65.8179 84.9713 67.3691 84.9713H85.2374L75.179 71.0861C74.4952 70.0076 74.1533 68.9165 74.1533 67.8118C74.1533 66.7337 74.4952 65.6426 75.179 64.5379L91.5888 41.8566C92.772 40.305 94.284 39.5293 96.1248 39.5293C97.2557 39.5293 98.3337 39.8975 99.3595 40.6337C100.885 41.7908 101.647 43.2897 101.647 45.1305C101.647 46.2613 101.292 47.3396 100.582 48.3649L86.5796 67.8515L100.582 87.2976C101.292 88.323 101.647 89.388 101.647 90.4926C101.647 91.3343 101.45 92.2017 101.055 93.0961C99.8196 95.0944 98.1755 96.0951 96.1245 96.0951ZM67.3687 50.6539C65.8171 50.6539 64.5022 50.1148 63.4241 49.0368C62.3461 47.9587 61.8066 46.6437 61.8066 45.0922C61.8066 43.567 62.3457 42.2587 63.4241 41.1674C64.5022 40.0761 65.8171 39.5305 67.3687 39.5305C68.8938 39.5305 70.2022 40.0761 71.2933 41.1674C72.3849 42.2588 72.9305 43.567 72.9305 45.0922C72.9305 46.6437 72.3849 47.9587 71.2933 49.0368C70.2022 50.1148 68.8938 50.6539 67.3687 50.6539Z" fill="white"/>
<path fill-rule="evenodd" clip-rule="evenodd" d="M68.5895 2.339C63.2878 -0.779664 56.7122 -0.779667 51.4105 2.33899L8.35166 27.6677C3.17717 30.7115 0 36.2666 0 42.2699V93.4793C0 99.4826 3.17716 105.038 8.35166 108.081L51.4105 133.41C56.7122 136.529 63.2878 136.529 68.5895 133.41L111.648 108.081C116.823 105.038 120 99.4826 120 93.4793V42.2699C120 36.2666 116.823 30.7115 111.648 27.6677L68.5895 2.339ZM69.0148 10.8096C63.7131 7.69093 57.1375 7.69092 51.8358 10.8096L15.8358 31.9861C10.6613 35.0299 7.48414 40.5849 7.48414 46.5882V89.4931C7.48414 95.4964 10.6613 101.051 15.8358 104.095L51.8358 125.272C57.1375 128.39 63.7131 128.39 69.0148 125.272L105.015 104.095C110.189 101.051 113.366 95.4964 113.366 89.4931V46.5882C113.366 40.5849 110.189 35.0299 105.015 31.9861L69.0148 10.8096Z" fill="white"/>
</svg>
