<svg width="40" height="40" viewBox="0 0 40 40" fill="none" xmlns="http://www.w3.org/2000/svg">
<g clip-path="url(#clip0_15_115)">
<path d="M29.091 1.81812H10.0001C4.97932 1.81812 0.90918 5.88825 0.90918 10.909V29.9999C0.90918 35.0207 4.97932 39.0908 10.0001 39.0908H29.091C34.1118 39.0908 38.1819 35.0207 38.1819 29.9999V10.909C38.1819 5.88825 34.1118 1.81812 29.091 1.81812Z" fill="white"/>
<path d="M39.1817 8.09093V32.4546C39.1817 34.4546 38.4544 36.1818 36.9998 37.6364C35.5453 39.0909 33.818 39.8182 31.818 39.8182H7.5453C5.5453 39.8182 3.818 39.0909 2.36346 37.6364C0.908913 36.1818 0.181641 34.4546 0.181641 32.4546V8.09093C0.181641 6.09093 0.908913 4.36366 2.36346 2.90911C3.818 1.45457 5.5453 0.727295 7.5453 0.727295H31.818C33.818 0.727295 35.5453 1.45457 36.9998 2.90911C38.4544 4.36366 39.1817 6.09093 39.1817 8.09093ZM12.4544 10.3637C12.4544 9.45457 12.0908 8.72729 11.5453 8.18184C10.9089 7.54548 10.1817 7.27275 9.18167 7.27275C8.18167 7.27275 7.36349 7.54548 6.81803 8.09093C6.18167 8.63638 5.90894 9.36366 5.90894 10.2727C5.90894 11.0909 6.18167 11.8182 6.81803 12.4546C7.4544 13 8.18167 13.3637 9.18167 13.3637C10.1817 13.3637 10.9999 13.0909 11.6362 12.4546C12.1817 11.9091 12.4544 11.1818 12.4544 10.3637ZM6.18167 33.3637H11.9998V15.7273H6.18167V33.3637ZM27.2726 33.3637H33.0908V23.2727C33.0908 20.6364 32.4544 18.7273 31.2726 17.3637C29.9998 16 28.3635 15.3637 26.3635 15.3637C24.0908 15.3637 22.2726 16.3637 21.0908 18.3637H21.1817V15.8182H15.3635C15.4544 16.9091 15.4544 22.8182 15.3635 33.4546H21.1817V23.5455C21.1817 22.9091 21.2726 22.4546 21.3635 22.0909C21.6362 21.4546 21.9998 21 22.5453 20.5455C23.0908 20.0909 23.6362 19.9091 24.4544 19.9091C26.4544 19.9091 27.3635 21.2727 27.3635 23.9091V33.3637H27.2726Z" fill="#0B66C3"/>
</g>
<defs>
<clipPath id="clip0_15_115">
<rect width="40" height="40" fill="white"/>
</clipPath>
</defs>
</svg>
