<svg width="40" height="29" viewBox="0 0 40 29" fill="none" xmlns="http://www.w3.org/2000/svg">
<g clip-path="url(#clip0_15_121)">
<path d="M29.1164 13.3706L19.8849 20.4438L10.6297 13.3999L0.290527 23.6816L0.297852 26.8067C0.298978 27.7069 1.08039 28.4337 2.03813 28.4298L37.7548 28.3723C38.7153 28.3751 39.4922 27.6461 39.4911 26.7458L39.4866 23.6252L29.1164 13.3706Z" fill="#FFC93C"/>
<path d="M8.43486 11.7302L0.26416 5.5105L0.285005 19.8339L8.43486 11.7302Z" fill="#FFC93C"/>
<path d="M31.3081 11.6958L39.4805 19.773L39.4591 5.45239L31.3081 11.6958Z" fill="#FFC93C"/>
<path d="M37.7134 0.166756L1.99562 0.219151C1.03562 0.221404 0.25759 0.948728 0.25928 1.84901V2.54704L19.8807 17.4811L39.4542 2.48845V1.79042C39.452 0.889573 38.6722 0.163939 37.7134 0.166756ZM25.7635 7.58535C25.5815 8.09014 25.3263 8.54478 24.9945 8.94985C24.6598 9.35267 24.2627 9.67887 23.7917 9.93183C23.3218 10.1853 22.7979 10.3149 22.226 10.3251C21.5736 10.3239 21.0756 10.1679 20.7365 9.85014C20.4672 9.97746 20.1849 10.0868 19.8908 10.1853C19.5962 10.2806 19.2232 10.3284 18.7759 10.3313C18.4886 10.3301 18.2193 10.2901 17.9708 10.209C17.7213 10.1307 17.4987 10.0079 17.3111 9.83436C17.1229 9.66479 16.9725 9.44676 16.8621 9.18873C16.7489 8.92957 16.6914 8.61859 16.6897 8.25859C16.6897 7.68845 16.7917 7.16732 16.9922 6.69464C17.19 6.21915 17.4672 5.81014 17.817 5.46366C18.1629 5.11943 18.5674 4.85239 19.0289 4.65971C19.4908 4.46366 19.9832 4.36676 20.5145 4.36676C20.9167 4.36394 21.3111 4.39267 21.7021 4.44788C22.0903 4.50084 22.4559 4.5876 22.7967 4.70366L21.9415 8.96732C22.0328 9.0338 22.1815 9.06535 22.3889 9.06366C22.7179 9.06535 23.012 8.97239 23.2728 8.78929C23.5336 8.60394 23.7483 8.36281 23.9235 8.06986C24.0948 7.7769 24.2289 7.45183 24.3184 7.09352C24.4046 6.7414 24.4497 6.38873 24.4497 6.04394C24.4486 5.08338 24.1331 4.34704 23.5066 3.83605C22.8796 3.3245 21.9967 3.07267 20.8615 3.07324C19.9804 3.07436 19.2013 3.21577 18.5184 3.49633C17.8328 3.77802 17.2542 4.15549 16.786 4.63042C16.3167 5.1031 15.9579 5.65183 15.7139 6.26704C15.4694 6.88338 15.346 7.52169 15.346 8.18366C15.3472 8.78817 15.4441 9.30366 15.6396 9.7307C15.8317 10.1549 16.0936 10.5065 16.4255 10.7786C16.7567 11.0484 17.1444 11.2479 17.5877 11.3707C18.0311 11.4986 18.5044 11.5594 19.0046 11.5594C19.4717 11.5566 19.9027 11.5307 20.2959 11.4761C20.6903 11.4214 21.0469 11.3358 21.3714 11.2169C21.4508 11.4017 21.528 11.5927 21.6001 11.787C21.67 11.9837 21.7365 12.178 21.7883 12.3718C21.63 12.4468 21.4322 12.5177 21.2114 12.5803C20.986 12.6423 20.7432 12.6941 20.4852 12.7318C20.2255 12.7696 19.9505 12.8 19.6587 12.822C19.3663 12.8445 19.0801 12.8563 18.7922 12.8563C18.1032 12.8563 17.4497 12.7656 16.8328 12.5831C16.212 12.3983 15.6722 12.1172 15.2052 11.7324C14.7393 11.3527 14.372 10.8772 14.1004 10.3003C13.8317 9.72281 13.6953 9.03323 13.6948 8.23718C13.6948 7.4907 13.8373 6.74028 14.1308 5.97408C14.417 5.21014 14.8638 4.5245 15.4615 3.90366C16.057 3.28563 16.8244 2.78478 17.75 2.39267C18.6751 2.00112 19.7759 1.80225 21.0463 1.8C21.7274 1.80056 22.372 1.88619 22.9753 2.05464C23.5765 2.22929 24.1089 2.48901 24.5613 2.84169C25.0125 3.19267 25.372 3.63098 25.6367 4.1645C25.8993 4.69859 26.0328 5.32281 26.0356 6.04056C26.039 6.5645 25.9466 7.07605 25.7635 7.58535Z" fill="#FFC93C"/>
<path d="M20.3664 5.68781C20.065 5.68781 19.7996 5.75091 19.5698 5.87823C19.3349 6.00612 19.1388 6.17514 18.9754 6.38359C18.8109 6.59317 18.687 6.82978 18.603 7.11035C18.5157 7.3864 18.4734 7.67373 18.4712 7.97119C18.4723 8.3526 18.5613 8.62866 18.7411 8.80049C18.918 8.97063 19.1501 9.05345 19.4413 9.05176C19.6233 9.05345 19.7805 9.03992 19.9134 9.0157C20.0425 8.99091 20.1867 8.95429 20.3427 8.91035L20.9253 5.74866C20.8256 5.72387 20.732 5.70809 20.6447 5.69964C20.5585 5.69007 20.4644 5.68725 20.3664 5.68781Z" fill="#FFC93C"/>
</g>
<defs>
<clipPath id="clip0_15_121">
<rect width="40" height="28.7324" fill="white"/>
</clipPath>
</defs>
</svg>
